<svg xmlns="http://www.w3.org/2000/svg" width="640" height="360" viewBox="0 0 640 360" fill="none">
  <defs>
    <pattern id="dots-b" width="20" height="20" patternUnits="userSpaceOnUse">
      <circle cx="4" cy="4" r="2" fill="#251c0a"/>
    </pattern>
  </defs>
  <rect width="640" height="360" fill="#110e08"/>
  <rect x="10" y="10" width="620" height="340" rx="12" fill="#2e2514" stroke="#f5f5f5" stroke-width="4"/>
  <rect x="18" y="18" width="604" height="324" rx="8" fill="url(#dots-b)" opacity="0.36"/>
  <rect x="42" y="44" width="262" height="272" rx="16" fill="#3d2d16" stroke="#f5f5f5" stroke-width="4"/>
  <rect x="62" y="64" width="222" height="30" rx="8" fill="#ffcf6b"/>
  <rect x="62" y="106" width="222" height="190" rx="12" fill="#17110a" stroke="#f5f5f5" stroke-width="3"/>
  <rect x="78" y="126" width="72" height="54" rx="8" fill="#ffcf6b"/>
  <rect x="160" y="126" width="56" height="14" rx="7" fill="#ffeed0"/>
  <rect x="160" y="146" width="48" height="12" rx="6" fill="#ffeed0" opacity="0.9"/>
  <rect x="160" y="164" width="40" height="12" rx="6" fill="#ffeed0" opacity="0.8"/>
  <rect x="78" y="192" width="72" height="54" rx="8" fill="#ffcf6b"/>
  <rect x="160" y="192" width="56" height="14" rx="7" fill="#ffeed0"/>
  <rect x="160" y="212" width="48" height="12" rx="6" fill="#ffeed0" opacity="0.9"/>
  <rect x="160" y="230" width="40" height="12" rx="6" fill="#ffeed0" opacity="0.8"/>
  <rect x="326" y="58" width="272" height="118" rx="16" fill="#ffcf6b" stroke="#111111" stroke-width="4"/>
  <circle cx="364" cy="116" r="28" fill="#111111"/>
  <rect x="404" y="92" width="174" height="16" rx="8" fill="#111111"/>
  <rect x="404" y="118" width="152" height="14" rx="7" fill="#111111"/>
  <rect x="404" y="142" width="124" height="14" rx="7" fill="#111111"/>
  <rect x="326" y="190" width="272" height="126" rx="16" fill="#111111" stroke="#f5f5f5" stroke-width="4"/>
  <path d="M356 280l38-32 28 20 40-36 44 42" stroke="#6cc5ff" stroke-width="8" stroke-linecap="round" stroke-linejoin="round"/>
  <circle cx="356" cy="280" r="8" fill="#6cc5ff"/>
  <circle cx="394" cy="248" r="8" fill="#6cc5ff"/>
  <circle cx="422" cy="268" r="8" fill="#6cc5ff"/>
  <circle cx="462" cy="232" r="8" fill="#6cc5ff"/>
  <circle cx="506" cy="274" r="8" fill="#6cc5ff"/>
</svg>
