<svg xmlns="http://www.w3.org/2000/svg" width="640" height="360" viewBox="0 0 640 360" fill="none">
  <defs>
    <pattern id="dots-d" width="18" height="18" patternUnits="userSpaceOnUse">
      <circle cx="3" cy="3" r="2" fill="#102017"/>
    </pattern>
  </defs>
  <rect width="640" height="360" fill="#070f0b"/>
  <rect x="10" y="10" width="620" height="340" rx="12" fill="#163224" stroke="#f5f5f5" stroke-width="4"/>
  <rect x="18" y="18" width="604" height="324" rx="8" fill="url(#dots-d)" opacity="0.35"/>
  <rect x="42" y="44" width="266" height="272" rx="16" fill="#112218" stroke="#f5f5f5" stroke-width="4"/>
  <circle cx="174" cy="122" r="56" fill="#79d0ff" stroke="#111111" stroke-width="4"/>
  <circle cx="174" cy="122" r="14" fill="#111111"/>
  <rect x="86" y="194" width="176" height="22" rx="11" fill="#5de290"/>
  <rect x="86" y="228" width="176" height="16" rx="8" fill="#d8ffe7"/>
  <rect x="86" y="254" width="148" height="14" rx="7" fill="#d8ffe7" opacity="0.9"/>
  <rect x="330" y="56" width="270" height="112" rx="14" fill="#5de290" stroke="#111111" stroke-width="4"/>
  <circle cx="372" cy="112" r="24" fill="#111111"/>
  <rect x="408" y="90" width="168" height="14" rx="7" fill="#111111"/>
  <rect x="408" y="114" width="148" height="14" rx="7" fill="#111111"/>
  <rect x="408" y="138" width="120" height="14" rx="7" fill="#111111"/>
  <rect x="330" y="184" width="270" height="132" rx="14" fill="#0e1912" stroke="#f5f5f5" stroke-width="4"/>
  <rect x="354" y="206" width="70" height="70" rx="10" fill="#ffd164" stroke="#111111" stroke-width="4"/>
  <circle cx="389" cy="241" r="22" fill="#111111"/>
  <rect x="446" y="212" width="132" height="14" rx="7" fill="#d8ffe7"/>
  <rect x="446" y="236" width="120" height="12" rx="6" fill="#d8ffe7" opacity="0.9"/>
  <rect x="446" y="258" width="98" height="12" rx="6" fill="#d8ffe7" opacity="0.8"/>
</svg>
