<svg xmlns="http://www.w3.org/2000/svg" width="640" height="360" viewBox="0 0 640 360" fill="none">
  <defs>
    <pattern id="dots-c" width="16" height="16" patternUnits="userSpaceOnUse">
      <circle cx="3" cy="3" r="1.8" fill="#2b0f19"/>
    </pattern>
  </defs>
  <rect width="640" height="360" fill="#120810"/>
  <rect x="10" y="10" width="620" height="340" rx="12" fill="#3c1528" stroke="#f5f5f5" stroke-width="4"/>
  <rect x="18" y="18" width="604" height="324" rx="8" fill="url(#dots-c)" opacity="0.38"/>
  <rect x="42" y="42" width="280" height="276" rx="16" fill="#24121e" stroke="#f5f5f5" stroke-width="4"/>
  <rect x="64" y="64" width="236" height="34" rx="10" fill="#ff7bb8"/>
  <rect x="64" y="110" width="236" height="14" rx="7" fill="#ffe5f2"/>
  <rect x="64" y="132" width="206" height="12" rx="6" fill="#ffe5f2" opacity="0.9"/>
  <rect x="64" y="162" width="236" height="78" rx="10" fill="#11090f" stroke="#f5f5f5" stroke-width="3"/>
  <rect x="80" y="178" width="204" height="10" rx="5" fill="#ff7bb8"/>
  <rect x="80" y="196" width="176" height="10" rx="5" fill="#ffd2e8"/>
  <rect x="80" y="214" width="152" height="10" rx="5" fill="#ffd2e8"/>
  <rect x="64" y="252" width="112" height="36" rx="8" fill="#ff7bb8"/>
  <rect x="188" y="252" width="112" height="36" rx="8" fill="#ffd2e8"/>
  <rect x="340" y="56" width="258" height="106" rx="14" fill="#ff7bb8" stroke="#111111" stroke-width="4"/>
  <path d="M372 130l26-20 18 12 30-28 34 34" stroke="#111111" stroke-width="7" stroke-linecap="round" stroke-linejoin="round"/>
  <rect x="340" y="180" width="258" height="136" rx="14" fill="#11090f" stroke="#f5f5f5" stroke-width="4"/>
  <circle cx="388" cy="224" r="24" fill="#ff7bb8"/>
  <circle cx="470" cy="224" r="24" fill="#ffcf6b"/>
  <circle cx="552" cy="224" r="24" fill="#79d0ff"/>
  <rect x="360" y="268" width="220" height="12" rx="6" fill="#ffe5f2"/>
  <rect x="360" y="288" width="184" height="10" rx="5" fill="#ffe5f2" opacity="0.9"/>
</svg>
