<svg xmlns="http://www.w3.org/2000/svg" width="640" height="360" viewBox="0 0 640 360" fill="none">
  <defs>
    <pattern id="dots-a" width="18" height="18" patternUnits="userSpaceOnUse">
      <circle cx="3" cy="3" r="2" fill="#13212f"/>
    </pattern>
  </defs>
  <rect width="640" height="360" fill="#0a0f16"/>
  <rect x="10" y="10" width="620" height="340" rx="12" fill="#142235" stroke="#f5f5f5" stroke-width="4"/>
  <rect x="18" y="18" width="604" height="324" rx="8" fill="url(#dots-a)" opacity="0.35"/>
  <rect x="44" y="44" width="270" height="184" rx="16" fill="#1f3550" stroke="#f5f5f5" stroke-width="4"/>
  <rect x="336" y="58" width="258" height="102" rx="14" fill="#ffe071" stroke="#111111" stroke-width="4"/>
  <rect x="350" y="72" width="230" height="18" rx="9" fill="#111111"/>
  <rect x="350" y="100" width="210" height="14" rx="7" fill="#111111"/>
  <rect x="350" y="124" width="190" height="14" rx="7" fill="#111111"/>
  <circle cx="179" cy="136" r="58" fill="#5bb0ff" stroke="#111111" stroke-width="4"/>
  <path d="M153 133c16 0 30 13 30 30M153 133c0-16 13-30 30-30M153 133h24" stroke="#111111" stroke-width="7" stroke-linecap="round"/>
  <circle cx="179" cy="136" r="9" fill="#111111"/>
  <rect x="336" y="184" width="258" height="132" rx="14" fill="#0e1d2e" stroke="#f5f5f5" stroke-width="4"/>
  <rect x="350" y="200" width="94" height="20" rx="10" fill="#5bb0ff"/>
  <rect x="350" y="230" width="198" height="14" rx="7" fill="#e8f2ff"/>
  <rect x="350" y="254" width="166" height="14" rx="7" fill="#e8f2ff" opacity="0.9"/>
  <rect x="350" y="278" width="120" height="14" rx="7" fill="#e8f2ff" opacity="0.8"/>
</svg>
